<mxfile host="app.diagrams.net" agent="Mozilla/5.0 (Windows NT 10.0; Win64; x64) AppleWebKit/537.36 (KHTML, like Gecko) Chrome/136.0.0.0 Safari/537.36" version="27.1.3" pages="2">
  <diagram name="Use cases" id="8xORzIAlI3ZlQFJDhumA">
    <mxGraphModel grid="1" page="1" gridSize="10" guides="1" tooltips="1" connect="1" arrows="1" fold="1" pageScale="1" pageWidth="827" pageHeight="1169" math="0" shadow="0">
      <root>
        <mxCell id="0" />
        <mxCell id="1" parent="0" />
        <mxCell id="QBcXgWzNrOb4AxYPAEIN-6" style="edgeStyle=orthogonalEdgeStyle;rounded=0;orthogonalLoop=1;jettySize=auto;html=1;exitX=1;exitY=0.3333333333333333;exitDx=0;exitDy=0;exitPerimeter=0;entryX=0;entryY=0.5;entryDx=0;entryDy=0;" edge="1" parent="1" source="SaRQmjbwt-UjurNbTrt0-1" target="SaRQmjbwt-UjurNbTrt0-4">
          <mxGeometry relative="1" as="geometry" />
        </mxCell>
        <mxCell id="QBcXgWzNrOb4AxYPAEIN-9" value="extends" style="edgeLabel;html=1;align=center;verticalAlign=middle;resizable=0;points=[];" vertex="1" connectable="0" parent="QBcXgWzNrOb4AxYPAEIN-6">
          <mxGeometry x="-0.0843" y="3" relative="1" as="geometry">
            <mxPoint as="offset" />
          </mxGeometry>
        </mxCell>
        <mxCell id="QBcXgWzNrOb4AxYPAEIN-8" style="edgeStyle=orthogonalEdgeStyle;rounded=0;orthogonalLoop=1;jettySize=auto;html=1;exitX=1;exitY=0.3333333333333333;exitDx=0;exitDy=0;exitPerimeter=0;entryX=0;entryY=0.5;entryDx=0;entryDy=0;" edge="1" parent="1" source="SaRQmjbwt-UjurNbTrt0-1" target="SaRQmjbwt-UjurNbTrt0-5">
          <mxGeometry relative="1" as="geometry" />
        </mxCell>
        <mxCell id="QBcXgWzNrOb4AxYPAEIN-10" value="extends" style="edgeLabel;html=1;align=center;verticalAlign=middle;resizable=0;points=[];" vertex="1" connectable="0" parent="QBcXgWzNrOb4AxYPAEIN-8">
          <mxGeometry x="0.0647" y="2" relative="1" as="geometry">
            <mxPoint as="offset" />
          </mxGeometry>
        </mxCell>
        <mxCell id="SaRQmjbwt-UjurNbTrt0-1" value="Utilizador" style="shape=umlActor;verticalLabelPosition=bottom;verticalAlign=top;html=1;" parent="1" vertex="1">
          <mxGeometry x="30" y="125" width="30" height="60" as="geometry" />
        </mxCell>
        <mxCell id="QBcXgWzNrOb4AxYPAEIN-5" style="edgeStyle=orthogonalEdgeStyle;rounded=0;orthogonalLoop=1;jettySize=auto;html=1;entryX=0;entryY=0.5;entryDx=0;entryDy=0;" edge="1" parent="1" source="SaRQmjbwt-UjurNbTrt0-3" target="SaRQmjbwt-UjurNbTrt0-11">
          <mxGeometry relative="1" as="geometry" />
        </mxCell>
        <mxCell id="QBcXgWzNrOb4AxYPAEIN-15" style="edgeStyle=orthogonalEdgeStyle;rounded=0;orthogonalLoop=1;jettySize=auto;html=1;exitX=0;exitY=1;exitDx=0;exitDy=0;exitPerimeter=0;" edge="1" parent="1" source="SaRQmjbwt-UjurNbTrt0-3" target="SaRQmjbwt-UjurNbTrt0-8">
          <mxGeometry relative="1" as="geometry" />
        </mxCell>
        <mxCell id="SaRQmjbwt-UjurNbTrt0-3" value="Sistema" style="shape=umlActor;verticalLabelPosition=bottom;verticalAlign=top;html=1;" parent="1" vertex="1">
          <mxGeometry x="560" y="50" width="30" height="60" as="geometry" />
        </mxCell>
        <mxCell id="QBcXgWzNrOb4AxYPAEIN-16" style="edgeStyle=orthogonalEdgeStyle;rounded=0;orthogonalLoop=1;jettySize=auto;html=1;exitX=1;exitY=1;exitDx=0;exitDy=0;" edge="1" parent="1" source="SaRQmjbwt-UjurNbTrt0-4" target="SaRQmjbwt-UjurNbTrt0-8">
          <mxGeometry relative="1" as="geometry" />
        </mxCell>
        <mxCell id="QBcXgWzNrOb4AxYPAEIN-18" value="includes" style="edgeLabel;html=1;align=center;verticalAlign=middle;resizable=0;points=[];" vertex="1" connectable="0" parent="QBcXgWzNrOb4AxYPAEIN-16">
          <mxGeometry x="-0.0878" y="-2" relative="1" as="geometry">
            <mxPoint as="offset" />
          </mxGeometry>
        </mxCell>
        <mxCell id="SaRQmjbwt-UjurNbTrt0-4" value="Gera aposta automatica" style="ellipse;whiteSpace=wrap;html=1;" parent="1" vertex="1">
          <mxGeometry x="160" y="10" width="140" height="70" as="geometry" />
        </mxCell>
        <mxCell id="QBcXgWzNrOb4AxYPAEIN-17" style="edgeStyle=orthogonalEdgeStyle;rounded=0;orthogonalLoop=1;jettySize=auto;html=1;exitX=1;exitY=0.5;exitDx=0;exitDy=0;" edge="1" parent="1" source="SaRQmjbwt-UjurNbTrt0-5">
          <mxGeometry relative="1" as="geometry">
            <mxPoint x="400" y="190.00000000000023" as="targetPoint" />
          </mxGeometry>
        </mxCell>
        <mxCell id="QBcXgWzNrOb4AxYPAEIN-19" value="includes" style="edgeLabel;html=1;align=center;verticalAlign=middle;resizable=0;points=[];" vertex="1" connectable="0" parent="QBcXgWzNrOb4AxYPAEIN-17">
          <mxGeometry x="-0.4855" y="-1" relative="1" as="geometry">
            <mxPoint as="offset" />
          </mxGeometry>
        </mxCell>
        <mxCell id="QBcXgWzNrOb4AxYPAEIN-24" style="edgeStyle=orthogonalEdgeStyle;rounded=0;orthogonalLoop=1;jettySize=auto;html=1;exitX=0;exitY=1;exitDx=0;exitDy=0;entryX=0.5;entryY=0;entryDx=0;entryDy=0;" edge="1" parent="1" source="SaRQmjbwt-UjurNbTrt0-5" target="SaRQmjbwt-UjurNbTrt0-6">
          <mxGeometry relative="1" as="geometry" />
        </mxCell>
        <mxCell id="QBcXgWzNrOb4AxYPAEIN-26" value="includes" style="edgeLabel;html=1;align=center;verticalAlign=middle;resizable=0;points=[];" vertex="1" connectable="0" parent="QBcXgWzNrOb4AxYPAEIN-24">
          <mxGeometry x="0.0271" y="1" relative="1" as="geometry">
            <mxPoint as="offset" />
          </mxGeometry>
        </mxCell>
        <mxCell id="QBcXgWzNrOb4AxYPAEIN-25" style="edgeStyle=orthogonalEdgeStyle;rounded=0;orthogonalLoop=1;jettySize=auto;html=1;exitX=1;exitY=1;exitDx=0;exitDy=0;" edge="1" parent="1" source="SaRQmjbwt-UjurNbTrt0-5" target="SaRQmjbwt-UjurNbTrt0-7">
          <mxGeometry relative="1" as="geometry" />
        </mxCell>
        <mxCell id="QBcXgWzNrOb4AxYPAEIN-27" value="includes" style="edgeLabel;html=1;align=center;verticalAlign=middle;resizable=0;points=[];" vertex="1" connectable="0" parent="QBcXgWzNrOb4AxYPAEIN-25">
          <mxGeometry x="0.1272" relative="1" as="geometry">
            <mxPoint as="offset" />
          </mxGeometry>
        </mxCell>
        <mxCell id="SaRQmjbwt-UjurNbTrt0-5" value="Gera aposta manual" style="ellipse;whiteSpace=wrap;html=1;" parent="1" vertex="1">
          <mxGeometry x="160" y="210" width="140" height="70" as="geometry" />
        </mxCell>
        <mxCell id="SaRQmjbwt-UjurNbTrt0-6" value="Consulta ganhos" style="ellipse;whiteSpace=wrap;html=1;" parent="1" vertex="1">
          <mxGeometry x="30" y="340" width="140" height="70" as="geometry" />
        </mxCell>
        <mxCell id="SaRQmjbwt-UjurNbTrt0-7" value="Ver chave vencedora" style="ellipse;whiteSpace=wrap;html=1;" parent="1" vertex="1">
          <mxGeometry x="240" y="340" width="140" height="70" as="geometry" />
        </mxCell>
        <mxCell id="SaRQmjbwt-UjurNbTrt0-8" value="valida entrada de estrelas e numeros" style="ellipse;whiteSpace=wrap;html=1;" parent="1" vertex="1">
          <mxGeometry x="320" y="95" width="150" height="90" as="geometry" />
        </mxCell>
        <mxCell id="QBcXgWzNrOb4AxYPAEIN-32" style="edgeStyle=orthogonalEdgeStyle;rounded=0;orthogonalLoop=1;jettySize=auto;html=1;entryX=0.5;entryY=1;entryDx=0;entryDy=0;" edge="1" parent="1" source="SaRQmjbwt-UjurNbTrt0-10" target="SaRQmjbwt-UjurNbTrt0-6">
          <mxGeometry relative="1" as="geometry" />
        </mxCell>
        <mxCell id="QBcXgWzNrOb4AxYPAEIN-33" value="includes" style="edgeLabel;html=1;align=center;verticalAlign=middle;resizable=0;points=[];" vertex="1" connectable="0" parent="QBcXgWzNrOb4AxYPAEIN-32">
          <mxGeometry x="-0.353" y="2" relative="1" as="geometry">
            <mxPoint as="offset" />
          </mxGeometry>
        </mxCell>
        <mxCell id="SaRQmjbwt-UjurNbTrt0-10" value="verifica e calcula acertos" style="ellipse;whiteSpace=wrap;html=1;" parent="1" vertex="1">
          <mxGeometry x="650" y="310" width="150" height="90" as="geometry" />
        </mxCell>
        <mxCell id="QBcXgWzNrOb4AxYPAEIN-20" style="edgeStyle=orthogonalEdgeStyle;rounded=0;orthogonalLoop=1;jettySize=auto;html=1;exitX=0.5;exitY=1;exitDx=0;exitDy=0;entryX=1;entryY=1;entryDx=0;entryDy=0;" edge="1" parent="1" source="SaRQmjbwt-UjurNbTrt0-11" target="SaRQmjbwt-UjurNbTrt0-8">
          <mxGeometry relative="1" as="geometry">
            <mxPoint x="530" y="260" as="targetPoint" />
            <Array as="points">
              <mxPoint x="725" y="160" />
              <mxPoint x="600" y="160" />
              <mxPoint x="600" y="260" />
              <mxPoint x="448" y="260" />
            </Array>
          </mxGeometry>
        </mxCell>
        <mxCell id="QBcXgWzNrOb4AxYPAEIN-22" value="includes" style="edgeLabel;html=1;align=center;verticalAlign=middle;resizable=0;points=[];" vertex="1" connectable="0" parent="QBcXgWzNrOb4AxYPAEIN-20">
          <mxGeometry x="-0.0487" y="1" relative="1" as="geometry">
            <mxPoint as="offset" />
          </mxGeometry>
        </mxCell>
        <mxCell id="QBcXgWzNrOb4AxYPAEIN-30" style="edgeStyle=orthogonalEdgeStyle;rounded=0;orthogonalLoop=1;jettySize=auto;html=1;exitX=1;exitY=1;exitDx=0;exitDy=0;entryX=1;entryY=0;entryDx=0;entryDy=0;" edge="1" parent="1" source="SaRQmjbwt-UjurNbTrt0-11" target="SaRQmjbwt-UjurNbTrt0-10">
          <mxGeometry relative="1" as="geometry" />
        </mxCell>
        <mxCell id="QBcXgWzNrOb4AxYPAEIN-31" value="includes" style="edgeLabel;html=1;align=center;verticalAlign=middle;resizable=0;points=[];" vertex="1" connectable="0" parent="QBcXgWzNrOb4AxYPAEIN-30">
          <mxGeometry x="-0.1857" y="3" relative="1" as="geometry">
            <mxPoint as="offset" />
          </mxGeometry>
        </mxCell>
        <mxCell id="SaRQmjbwt-UjurNbTrt0-11" value="gera a chave vencedora" style="ellipse;whiteSpace=wrap;html=1;" parent="1" vertex="1">
          <mxGeometry x="650" y="-30" width="150" height="90" as="geometry" />
        </mxCell>
      </root>
    </mxGraphModel>
  </diagram>
  <diagram id="7L4O7lPYuUKSg4fx2L3h" name="Diagrama de classes">
    <mxGraphModel dx="868" dy="468" grid="1" gridSize="10" guides="1" tooltips="1" connect="1" arrows="1" fold="1" page="1" pageScale="1" pageWidth="827" pageHeight="1169" math="0" shadow="0">
      <root>
        <mxCell id="0" />
        <mxCell id="1" parent="0" />
        <mxCell id="p_6aNMzzfYxKtWnTql1X-1" value="LotteryManager" style="swimlane;fontStyle=1;align=center;verticalAlign=top;childLayout=stackLayout;horizontal=1;startSize=26;horizontalStack=0;resizeParent=1;resizeParentMax=0;resizeLast=0;collapsible=1;marginBottom=0;whiteSpace=wrap;html=1;" vertex="1" parent="1">
          <mxGeometry x="50" y="50" width="330" height="370" as="geometry">
            <mxRectangle x="330" y="250" width="70" height="30" as="alternateBounds" />
          </mxGeometry>
        </mxCell>
        <mxCell id="p_6aNMzzfYxKtWnTql1X-2" value="- vector&amp;lt;Bet&amp;gt; userBets&lt;div&gt;&lt;br&gt;&lt;div&gt;- Bet winningBet&lt;/div&gt;&lt;/div&gt;" style="text;strokeColor=none;fillColor=none;align=left;verticalAlign=top;spacingLeft=4;spacingRight=4;overflow=hidden;rotatable=0;points=[[0,0.5],[1,0.5]];portConstraint=eastwest;whiteSpace=wrap;html=1;" vertex="1" parent="p_6aNMzzfYxKtWnTql1X-1">
          <mxGeometry y="26" width="330" height="54" as="geometry" />
        </mxCell>
        <mxCell id="p_6aNMzzfYxKtWnTql1X-3" value="" style="line;strokeWidth=1;fillColor=none;align=left;verticalAlign=middle;spacingTop=-1;spacingLeft=3;spacingRight=3;rotatable=0;labelPosition=right;points=[];portConstraint=eastwest;strokeColor=inherit;" vertex="1" parent="p_6aNMzzfYxKtWnTql1X-1">
          <mxGeometry y="80" width="330" height="8" as="geometry" />
        </mxCell>
        <mxCell id="p_6aNMzzfYxKtWnTql1X-4" value="&lt;div&gt;-generateUniqueNumbers(int, int, int) : vector&amp;lt;int&amp;gt;&lt;/div&gt;&lt;div&gt;&lt;br&gt;&lt;/div&gt;&lt;div&gt;-generateWinningBet() : void&lt;/div&gt;&lt;div&gt;&lt;br&gt;&lt;/div&gt;&lt;div&gt;-calculatePrize(int, int) : int&lt;/div&gt;&lt;div&gt;&lt;br&gt;&lt;/div&gt;&lt;div&gt;+Ticket()&lt;/div&gt;&lt;div&gt;&lt;br&gt;&lt;/div&gt;&lt;div&gt;+generateAutomaticBet() : void&lt;/div&gt;&lt;div&gt;&lt;br&gt;&lt;/div&gt;&lt;div&gt;+generateUserBet() : void&lt;/div&gt;&lt;div&gt;&lt;br&gt;&lt;/div&gt;&lt;div&gt;+viewUserBets() : void&lt;/div&gt;&lt;div&gt;&lt;br&gt;&lt;/div&gt;&lt;div&gt;+viewWinningBet() : void&lt;/div&gt;&lt;div&gt;&lt;br&gt;&lt;/div&gt;&lt;div&gt;+viewGains() : void&lt;/div&gt;" style="text;strokeColor=none;fillColor=none;align=left;verticalAlign=top;spacingLeft=4;spacingRight=4;overflow=hidden;rotatable=0;points=[[0,0.5],[1,0.5]];portConstraint=eastwest;whiteSpace=wrap;html=1;" vertex="1" parent="p_6aNMzzfYxKtWnTql1X-1">
          <mxGeometry y="88" width="330" height="282" as="geometry" />
        </mxCell>
        <mxCell id="p_6aNMzzfYxKtWnTql1X-11" value="Bet" style="swimlane;fontStyle=1;align=center;verticalAlign=top;childLayout=stackLayout;horizontal=1;startSize=26;horizontalStack=0;resizeParent=1;resizeParentMax=0;resizeLast=0;collapsible=1;marginBottom=0;whiteSpace=wrap;html=1;" vertex="1" parent="1">
          <mxGeometry x="460" y="55" width="330" height="360" as="geometry">
            <mxRectangle x="330" y="250" width="70" height="30" as="alternateBounds" />
          </mxGeometry>
        </mxCell>
        <mxCell id="p_6aNMzzfYxKtWnTql1X-12" value="&lt;div&gt;-vector~int~ numbers&lt;/div&gt;&lt;div&gt;&lt;br&gt;&lt;/div&gt;&lt;div&gt;-vector~int~ stars&lt;/div&gt;&lt;div&gt;&lt;br&gt;&lt;/div&gt;&lt;div&gt;-int premio&lt;/div&gt;" style="text;strokeColor=none;fillColor=none;align=left;verticalAlign=top;spacingLeft=4;spacingRight=4;overflow=hidden;rotatable=0;points=[[0,0.5],[1,0.5]];portConstraint=eastwest;whiteSpace=wrap;html=1;" vertex="1" parent="p_6aNMzzfYxKtWnTql1X-11">
          <mxGeometry y="26" width="330" height="94" as="geometry" />
        </mxCell>
        <mxCell id="p_6aNMzzfYxKtWnTql1X-13" value="" style="line;strokeWidth=1;fillColor=none;align=left;verticalAlign=middle;spacingTop=-1;spacingLeft=3;spacingRight=3;rotatable=0;labelPosition=right;points=[];portConstraint=eastwest;strokeColor=inherit;" vertex="1" parent="p_6aNMzzfYxKtWnTql1X-11">
          <mxGeometry y="120" width="330" height="8" as="geometry" />
        </mxCell>
        <mxCell id="p_6aNMzzfYxKtWnTql1X-14" value="&lt;div&gt;+Bet()&lt;/div&gt;&lt;div&gt;&lt;br&gt;&lt;/div&gt;&lt;div&gt;+setNumbers(vector&amp;lt;int&amp;gt;)&lt;/div&gt;&lt;div&gt;&lt;br&gt;&lt;/div&gt;&lt;div&gt;+setStars(vector&amp;lt;int&amp;gt;)&lt;/div&gt;&lt;div&gt;&lt;br&gt;&lt;/div&gt;&lt;div&gt;+setPremio(int)&lt;/div&gt;&lt;div&gt;&lt;br&gt;&lt;/div&gt;&lt;div&gt;+getNumbers() : vector&amp;lt;int&amp;gt;&lt;/div&gt;&lt;div&gt;&lt;br&gt;&lt;/div&gt;&lt;div&gt;+getStars() : vector&amp;lt;int&amp;gt;&lt;/div&gt;&lt;div&gt;&lt;br&gt;&lt;/div&gt;&lt;div&gt;+getPremio() : int&lt;/div&gt;&lt;div&gt;&lt;br&gt;&lt;/div&gt;&lt;div&gt;+print() : void&lt;/div&gt;" style="text;strokeColor=none;fillColor=none;align=left;verticalAlign=top;spacingLeft=4;spacingRight=4;overflow=hidden;rotatable=0;points=[[0,0.5],[1,0.5]];portConstraint=eastwest;whiteSpace=wrap;html=1;" vertex="1" parent="p_6aNMzzfYxKtWnTql1X-11">
          <mxGeometry y="128" width="330" height="232" as="geometry" />
        </mxCell>
      </root>
    </mxGraphModel>
  </diagram>
</mxfile>
